<mxfile host="app.diagrams.net" modified="2024-05-13T07:23:05.678Z" agent="Mozilla/5.0 (Windows NT 10.0; Win64; x64) AppleWebKit/537.36 (KHTML, like Gecko) Chrome/124.0.0.0 Safari/537.36" etag="2RqQbQttzQYaJadLwNE7" version="24.4.0" type="github">
  <diagram name="Page-1" id="MInraLOt3UInxHZu4G2w">
    <mxGraphModel dx="794" dy="500" grid="1" gridSize="10" guides="1" tooltips="1" connect="1" arrows="1" fold="1" page="1" pageScale="1" pageWidth="850" pageHeight="1100" math="0" shadow="0">
      <root>
        <mxCell id="0" />
        <mxCell id="1" parent="0" />
        <mxCell id="j5JaAC0x9q945ilZ1YBT-3" value="Wellness Landing" style="rounded=0;whiteSpace=wrap;html=1;" parent="1" vertex="1">
          <mxGeometry x="220" y="250" width="170" height="70" as="geometry" />
        </mxCell>
        <mxCell id="j5JaAC0x9q945ilZ1YBT-4" value="Execution" style="rounded=0;whiteSpace=wrap;html=1;" parent="1" vertex="1">
          <mxGeometry x="250" y="360" width="120" height="60" as="geometry" />
        </mxCell>
        <mxCell id="j5JaAC0x9q945ilZ1YBT-10" style="edgeStyle=orthogonalEdgeStyle;rounded=0;orthogonalLoop=1;jettySize=auto;html=1;entryX=0.5;entryY=0;entryDx=0;entryDy=0;" parent="1" source="j5JaAC0x9q945ilZ1YBT-5" target="j5JaAC0x9q945ilZ1YBT-7" edge="1">
          <mxGeometry relative="1" as="geometry" />
        </mxCell>
        <mxCell id="j5JaAC0x9q945ilZ1YBT-23" value="" style="edgeStyle=orthogonalEdgeStyle;rounded=0;orthogonalLoop=1;jettySize=auto;html=1;" parent="1" source="j5JaAC0x9q945ilZ1YBT-5" target="j5JaAC0x9q945ilZ1YBT-19" edge="1">
          <mxGeometry relative="1" as="geometry" />
        </mxCell>
        <mxCell id="j5JaAC0x9q945ilZ1YBT-5" value="Online Login" style="rounded=0;whiteSpace=wrap;html=1;" parent="1" vertex="1">
          <mxGeometry x="90" y="10" width="120" height="60" as="geometry" />
        </mxCell>
        <mxCell id="j5JaAC0x9q945ilZ1YBT-6" value="Offline Login" style="rounded=0;whiteSpace=wrap;html=1;" parent="1" vertex="1">
          <mxGeometry x="540" y="150" width="120" height="60" as="geometry" />
        </mxCell>
        <mxCell id="j5JaAC0x9q945ilZ1YBT-17" style="edgeStyle=orthogonalEdgeStyle;rounded=0;orthogonalLoop=1;jettySize=auto;html=1;entryX=0.5;entryY=0;entryDx=0;entryDy=0;" parent="1" source="j5JaAC0x9q945ilZ1YBT-7" target="j5JaAC0x9q945ilZ1YBT-6" edge="1">
          <mxGeometry relative="1" as="geometry" />
        </mxCell>
        <mxCell id="j5JaAC0x9q945ilZ1YBT-7" value="Obtain offline token&lt;br&gt;Load PouchDB" style="rounded=0;whiteSpace=wrap;html=1;" parent="1" vertex="1">
          <mxGeometry x="410" y="50" width="120" height="60" as="geometry" />
        </mxCell>
        <mxCell id="j5JaAC0x9q945ilZ1YBT-18" style="edgeStyle=orthogonalEdgeStyle;rounded=0;orthogonalLoop=1;jettySize=auto;html=1;entryX=1.002;entryY=0.6;entryDx=0;entryDy=0;entryPerimeter=0;" parent="1" source="j5JaAC0x9q945ilZ1YBT-6" target="j5JaAC0x9q945ilZ1YBT-3" edge="1">
          <mxGeometry relative="1" as="geometry" />
        </mxCell>
        <mxCell id="j5JaAC0x9q945ilZ1YBT-24" value="" style="edgeStyle=orthogonalEdgeStyle;rounded=0;orthogonalLoop=1;jettySize=auto;html=1;" parent="1" source="j5JaAC0x9q945ilZ1YBT-19" target="j5JaAC0x9q945ilZ1YBT-3" edge="1">
          <mxGeometry relative="1" as="geometry" />
        </mxCell>
        <mxCell id="j5JaAC0x9q945ilZ1YBT-19" value="Keycloak Token" style="rounded=0;whiteSpace=wrap;html=1;" parent="1" vertex="1">
          <mxGeometry x="160" y="120" width="110" height="50" as="geometry" />
        </mxCell>
        <mxCell id="j5JaAC0x9q945ilZ1YBT-20" style="edgeStyle=orthogonalEdgeStyle;rounded=0;orthogonalLoop=1;jettySize=auto;html=1;exitX=0.5;exitY=1;exitDx=0;exitDy=0;" parent="1" source="j5JaAC0x9q945ilZ1YBT-19" target="j5JaAC0x9q945ilZ1YBT-19" edge="1">
          <mxGeometry relative="1" as="geometry" />
        </mxCell>
      </root>
    </mxGraphModel>
  </diagram>
</mxfile>
